<?xml version="1.0" standalone="no"?>
<!DOCTYPE svg PUBLIC "-//W3C//DTD SVG 20010904//EN"
 "http://www.w3.org/TR/2001/REC-SVG-20010904/DTD/svg10.dtd">
<svg version="1.0" xmlns="http://www.w3.org/2000/svg"
 width="700.000000pt" height="700.000000pt" viewBox="0 0 700.000000 700.000000"
 preserveAspectRatio="xMidYMid meet">
<metadata>
Created by potrace 1.11, written by Peter Selinger 2001-2013
</metadata>
<g transform="translate(0.000000,700.000000) scale(0.100000,-0.100000)"
fill="#000000" stroke="none">
<path d="M1925 6993 c-99 -9 -300 -48 -405 -79 -395 -119 -702 -314 -996 -635
-120 -131 -268 -365 -346 -544 -126 -293 -177 -553 -173 -875 3 -195 7 -242
36 -380 11 -52 22 -104 24 -115 6 -25 45 -153 56 -182 5 -13 13 -33 17 -45 5
-13 20 -46 33 -75 l24 -52 70 65 c285 268 642 482 1000 599 77 25 214 64 248
71 12 2 33 6 47 9 80 17 79 17 205 34 129 17 181 21 350 20 157 0 199 -2 300
-14 28 -3 70 -8 95 -11 65 -8 258 -50 354 -78 410 -119 792 -339 1110 -640 43
-39 62 -52 68 -43 14 22 77 191 102 277 28 92 51 198 62 276 3 27 8 58 11 69
2 11 6 101 7 200 3 160 -8 325 -29 415 -3 14 -8 39 -10 55 -26 144 -102 360
-186 525 -181 356 -437 633 -794 857 -176 111 -452 218 -675 262 -53 10 -74
14 -165 26 -48 7 -383 13 -440 8z"/>
<path d="M4719 6996 c-2 -2 -33 -7 -69 -10 -165 -17 -447 -91 -593 -156 l-49
-22 24 -25 c12 -15 34 -38 48 -52 221 -225 447 -589 563 -906 52 -141 107
-338 121 -430 4 -22 11 -65 16 -95 10 -58 19 -132 26 -215 5 -66 5 -349 -1
-400 -2 -22 -7 -67 -10 -99 -55 -565 -322 -1132 -739 -1569 l-49 -52 60 -27
c109 -49 349 -120 452 -134 25 -3 49 -8 52 -10 17 -10 177 -19 334 -18 157 1
239 8 360 29 93 17 306 75 360 99 17 8 41 17 55 21 67 20 368 187 445 247 99
77 139 111 180 148 316 294 517 625 624 1030 32 120 37 146 47 220 3 25 8 56
10 70 10 50 12 367 4 450 -14 127 -17 147 -38 245 -85 386 -280 746 -559 1030
-77 79 -110 109 -207 187 -11 10 -25 21 -31 26 -5 4 -44 31 -85 58 -276 184
-568 297 -895 344 -73 11 -448 24 -456 16z"/>
<path d="M1969 4226 c-2 -2 -40 -6 -83 -10 -44 -4 -82 -8 -85 -10 -3 -2 -26
-7 -51 -10 -86 -12 -256 -57 -365 -97 -516 -193 -933 -570 -1172 -1062 -24
-48 -43 -91 -43 -95 0 -4 -7 -19 -14 -34 -39 -74 -105 -307 -126 -443 -6 -38
-13 -81 -16 -95 -3 -14 -7 -108 -9 -210 -6 -411 74 -735 272 -1089 68 -122 78
-136 190 -277 337 -428 833 -705 1395 -778 140 -18 481 -13 574 9 12 2 39 7
60 11 107 16 329 83 436 133 l59 27 -43 45 c-200 209 -329 390 -472 662 -101
193 -207 505 -241 710 -3 17 -10 57 -15 87 -5 30 -12 82 -15 115 -3 33 -8 78
-10 100 -5 46 -6 355 -1 400 2 17 6 62 10 100 10 90 53 325 71 384 51 167 67
213 88 271 121 321 322 642 561 895 58 61 64 70 49 79 -66 37 -338 126 -433
141 -19 3 -42 8 -50 10 -8 2 -33 7 -55 10 -22 2 -56 7 -75 10 -41 7 -385 16
-391 11z"/>
<path d="M2942 2942 c-46 -106 -105 -287 -118 -357 -3 -16 -9 -48 -14 -70 -5
-22 -12 -62 -15 -90 -4 -27 -9 -61 -12 -75 -11 -57 -10 -380 3 -480 70 -557
324 -1023 755 -1384 303 -255 720 -432 1109 -473 139 -14 529 -6 559 12 4 1
26 6 51 9 72 10 259 61 366 101 539 202 981 625 1209 1160 68 159 133 417 154
605 8 80 6 405 -3 460 -2 14 -7 45 -10 70 -4 25 -9 59 -12 75 -9 52 -76 300
-84 310 -4 6 -13 28 -20 50 -11 33 -46 113 -55 123 -1 2 -27 -21 -58 -50 -65
-63 -95 -90 -162 -143 -27 -22 -52 -43 -55 -46 -3 -3 -54 -40 -115 -82 -412
-282 -827 -429 -1335 -473 -58 -5 -343 -4 -395 1 -22 2 -68 7 -103 10 -35 4
-73 8 -85 11 -12 2 -51 9 -87 15 -481 77 -1016 348 -1378 698 -35 34 -64 61
-66 61 -2 0 -13 -21 -24 -48z"/>
</g>
</svg>
