<svg width="108" height="29" viewBox="0 0 108 29" fill="none" xmlns="http://www.w3.org/2000/svg">
<path d="M49.2026 28.0652C51.5786 28.0652 53.5946 26.8412 54.3146 25.0412V27.8732H56.5706V21.9212C56.5706 20.1212 54.9866 19.0892 53.6666 19.0892H49.3946V21.1052H53.0426C53.7386 21.1052 54.1706 21.5612 54.1706 22.2092C54.1706 24.3932 51.8426 25.9292 49.2746 25.9292C45.9866 25.9292 43.5626 23.5772 43.5626 19.4732C43.5626 15.3692 45.9866 13.0892 49.2986 13.0892C51.7706 13.0892 53.6906 14.5052 54.0266 16.5452H56.6186C56.2826 13.2332 53.2586 10.8812 49.2986 10.8812C45.0506 10.8812 41.0666 13.7372 41.0666 19.4732C41.0666 25.2092 45.0026 28.0652 49.2026 28.0652ZM67.907 23.9372C67.571 25.3052 66.419 26.0732 64.643 26.0732C62.531 26.0732 61.043 24.5132 60.851 22.2332H70.091C70.115 22.0172 70.139 21.6332 70.139 21.3212C70.139 18.2492 68.147 15.5852 64.403 15.5852C60.683 15.5852 58.571 18.3692 58.571 21.7532C58.571 25.1132 60.899 28.0652 64.643 28.0652C67.619 28.0652 69.803 26.4332 70.235 23.9372H67.907ZM64.403 17.4572C66.395 17.4572 67.643 18.6812 67.787 20.5292H60.923C61.283 18.5132 62.507 17.4572 64.403 17.4572ZM73.7371 11.9852V15.7772H71.2651V17.7932H73.7371V23.9132C73.7371 26.3852 75.2971 27.8732 77.7451 27.8732H79.6411V25.8572H77.9371C76.7611 25.8572 76.0651 25.1372 76.0651 23.8412V17.7932H79.6411V15.7772H76.0651V11.9852H73.7371ZM81.8424 27.8732H84.3384V20.5052H91.0344V18.2972H84.3384V13.2812H92.6184V11.0732H81.8424V27.8732ZM94.8417 10.7132V13.6412H97.4337V10.7132H94.8417ZM94.9857 27.8732H97.3137V15.7772H94.9857V27.8732ZM101.651 11.9852V15.7772H99.1792V17.7932H101.651V23.9132C101.651 26.3852 103.211 27.8732 105.659 27.8732H107.555V25.8572H105.851C104.675 25.8572 103.979 25.1372 103.979 23.8412V17.7932H107.555V15.7772H103.979V11.9852H101.651Z" fill="white"/>
<path d="M9.74606 20.2569C9.74606 17.1873 11.0097 14.4088 13.0415 12.4084C11.9466 11.9058 10.733 11.6184 9.44829 11.6184C4.67721 11.6184 0.809448 15.4862 0.809448 20.2569C0.809448 25.028 4.67721 28.8957 9.44829 28.8957C10.733 28.8957 11.9462 28.6083 13.0415 28.1057C11.0097 26.1054 9.74606 23.3268 9.74606 20.2569Z" fill="url(#paint0_linear)"/>
<path d="M20.7678 19.9591C17.6982 19.9591 14.9196 18.6955 12.9193 16.6626C12.4167 17.7586 12.1293 18.9722 12.1293 20.2569C12.1293 25.028 15.997 28.8957 20.7678 28.8957C25.5388 28.8957 29.4066 25.028 29.4066 20.2569C29.4066 18.9722 29.1192 17.7589 28.6166 16.6626C26.6162 18.6955 23.8377 19.9591 20.7678 19.9591Z" fill="url(#paint1_linear)"/>
<path d="M20.7678 0.298584C19.483 0.298584 18.2698 0.585985 17.1735 1.08858C19.2064 3.08895 20.47 5.86752 20.47 8.93742C20.47 12.007 19.2064 14.7855 17.1735 16.7859C18.2694 17.2885 19.483 17.5759 20.7678 17.5759C25.5388 17.5759 29.4066 13.7081 29.4066 8.93742C29.4066 4.16635 25.5388 0.298584 20.7678 0.298584Z" fill="url(#paint2_linear)"/>
<path d="M9.44829 9.23519C12.5178 9.23519 15.2964 10.4988 17.2968 12.5307C17.7994 11.4357 18.0868 10.2221 18.0868 8.93742C18.0868 4.16635 14.219 0.298584 9.44829 0.298584C4.67721 0.298584 0.809448 4.16635 0.809448 8.93742C0.809448 10.2221 1.09685 11.4354 1.59944 12.5307C3.59981 10.4988 6.37838 9.23519 9.44829 9.23519Z" fill="url(#paint3_linear)"/>
<defs>
<linearGradient id="paint0_linear" x1="6.92548" y1="11.6184" x2="6.92548" y2="28.8957" gradientUnits="userSpaceOnUse">
<stop stop-color="#9E00FF"/>
<stop offset="1" stop-color="#FF0099"/>
</linearGradient>
<linearGradient id="paint1_linear" x1="20.7679" y1="16.6626" x2="20.7679" y2="28.8957" gradientUnits="userSpaceOnUse">
<stop stop-color="#9E00FF"/>
<stop offset="1" stop-color="#FF0099"/>
</linearGradient>
<linearGradient id="paint2_linear" x1="23.29" y1="0.298584" x2="23.29" y2="17.5759" gradientUnits="userSpaceOnUse">
<stop stop-color="#9E00FF"/>
<stop offset="1" stop-color="#FF0099"/>
</linearGradient>
<linearGradient id="paint3_linear" x1="9.44811" y1="0.298584" x2="9.44811" y2="12.5307" gradientUnits="userSpaceOnUse">
<stop stop-color="#9E00FF"/>
<stop offset="1" stop-color="#FF0099"/>
</linearGradient>
</defs>
</svg>
